<svg xmlns="http://www.w3.org/2000/svg" viewBox="0 0 89.02 84.68"><defs><style>.cls-1{fill:#fff;}</style></defs><title>Asset 4</title><g id="Layer_2" data-name="Layer 2"><g id="Layer_1-2" data-name="Layer 1"><path id="_Path_" data-name="&lt;Path&gt;" class="cls-1" d="M54.09,21.47l-4.53,9.05a22.43,22.43,0,0,1,9.75,3.13,20.58,20.58,0,0,1,6.62,5.73,21.56,21.56,0,0,1,3.21,6.08A34.85,34.85,0,0,0,54.27,21.12Z"/><path id="_Path_2" data-name="&lt;Path&gt;" class="cls-1" d="M3.42,55.08A5.3,5.3,0,0,1,0,52.39,32.42,32.42,0,0,0,7.55,71.51V54.72A5.6,5.6,0,0,1,3.42,55.08Z"/><path id="_Path_3" data-name="&lt;Path&gt;" class="cls-1" d="M61.59,69.67a21.89,21.89,0,0,1-15.74,4.2,20.39,20.39,0,0,1-8.1-2.73,19.41,19.41,0,0,1-6.4-5.68,23.65,23.65,0,0,1-3.67-7.56,21.68,21.68,0,0,1-.62-8.32,20.56,20.56,0,0,1,2.64-8L43.61,16.22A34.84,34.84,0,0,0,0,46a5.83,5.83,0,0,1,2-1.75q9.39-6.09,11.81-6.08a6.37,6.37,0,0,1,6.32,6.35V78.94a5.83,5.83,0,0,1-.47,2.37,34.84,34.84,0,0,0,46-15.61A20.15,20.15,0,0,1,61.59,69.67Z"/><path id="_Path_4" data-name="&lt;Path&gt;" class="cls-1" d="M39.9,47.34a9.22,9.22,0,0,0-1.3,3.72,9.91,9.91,0,0,0,.27,3.76,10.88,10.88,0,0,0,1.65,3.48,9.21,9.21,0,0,0,3,2.73,10.1,10.1,0,0,0,3.72,1.21A9.91,9.91,0,0,0,51,62a10.4,10.4,0,0,0,3.44-1.65,10,10,0,0,0,2.69-3,10.86,10.86,0,0,0,1.25-3.75,9.77,9.77,0,0,0-.23-3.85,10.66,10.66,0,0,0-1.61-3.49,8.94,8.94,0,0,0-3-2.68,9.36,9.36,0,0,0-3.67-1.21,11,11,0,0,0-3.85.22,9.36,9.36,0,0,0-3.49,1.66A9.9,9.9,0,0,0,39.9,47.34Z"/><circle id="_Path_5" data-name="&lt;Path&gt;" class="cls-1" cx="80.79" cy="25.09" r="8.23"/><circle id="_Path_6" data-name="&lt;Path&gt;" class="cls-1" cx="67.6" cy="12.85" r="5.62"/><circle id="_Path_7" data-name="&lt;Path&gt;" class="cls-1" cx="81.76" cy="4.01" r="4.01"/></g></g></svg>